{"glyphs":{":":{"x_min":0,"x_max":240,"ha":240,"o":"m 119 506 b 72 506 34 467 34 421 b 34 374 72 335 119 335 b 167 335 205 374 205 421 b 205 467 167 506 119 506 z m 119 155 b 72 155 34 116 34 70 b 34 23 72 -16 119 -16 b 167 -16 205 23 205 70 b 205 116 167 155 119 155 z"},"$":{"x_min":0,"x_max":545,"ha":545,"o":"m 516 196 b 516 320 440 370 319 408 b 211 442 186 461 186 507 b 186 554 225 579 283 579 b 337 579 384 562 429 522 l 497 601 b 453 644 401 671 333 681 l 333 829 l 227 829 l 227 682 b 117 666 41 597 41 497 b 41 397 98 339 242 294 b 343 263 370 240 370 187 b 370 128 323 96 255 96 b 187 96 133 121 87 163 l 13 83 b 63 34 133 -3 227 -9 l 227 -160 l 333 -160 l 333 -4 b 449 18 516 95 516 196 z"},"?":{"x_min":0,"x_max":476,"ha":476,"o":"m 246 708 b 147 708 75 669 18 603 l 110 532 b 147 575 189 595 232 595 b 280 595 309 572 309 531 b 309 443 147 456 147 284 l 147 249 l 278 249 l 278 279 b 278 396 458 382 458 544 b 458 630 387 708 246 708 z m 214 155 b 166 155 129 116 129 70 b 129 23 166 -16 214 -16 b 262 -16 300 23 300 70 b 300 116 262 155 214 155 z"},"<":{"x_min":0,"x_max":514,"ha":514,"o":"m 430 570 l 38 397 l 38 269 l 430 96 l 476 201 l 157 333 l 476 467 z"},"'":{"x_min":0,"x_max":234,"ha":234,"o":"m 69 417 l 165 417 l 183 692 l 51 692 z"},"=":{"x_min":0,"x_max":514,"ha":514,"o":"m 52 379 l 463 379 l 463 490 l 52 490 z m 52 173 l 463 173 l 463 284 l 52 284 z"},"a":{"x_min":0,"x_max":547,"ha":547,"o":"m 475 147 l 475 361 b 475 481 412 546 265 546 b 205 546 135 533 69 507 l 101 412 b 155 430 206 440 241 440 b 308 440 336 419 336 353 l 336 327 l 275 327 b 118 327 31 264 31 148 b 31 52 97 -16 203 -16 b 266 -16 324 6 362 63 b 384 11 424 -8 484 -14 l 514 80 b 488 89 475 104 475 147 z m 242 86 b 198 86 174 113 174 160 b 174 218 212 246 289 246 l 336 246 l 336 145 b 314 107 283 86 242 86 z"},"L":{"x_min":0,"x_max":509,"ha":509,"o":"m 220 692 l 73 692 l 73 0 l 478 0 l 494 118 l 220 118 z"},"3":{"x_min":0,"x_max":515,"ha":515,"o":"m 235 687 b 150 687 78 657 17 599 l 88 522 b 129 561 170 580 221 580 b 279 580 316 549 316 497 b 316 436 274 402 213 402 l 176 402 l 159 302 l 214 302 b 288 302 330 275 330 200 b 330 133 285 94 217 94 b 165 94 123 113 78 158 l 1 84 b 53 20 128 -16 225 -16 b 386 -16 476 77 476 191 b 476 297 406 348 322 357 b 403 379 454 433 454 516 b 454 610 378 687 235 687 z"},";":{"x_min":0,"x_max":240,"ha":240,"o":"m 119 506 b 72 506 34 467 34 421 b 34 374 72 335 119 335 b 167 335 205 374 205 421 b 205 467 167 506 119 506 z m 119 155 b 71 155 34 118 34 70 b 34 41 48 15 71 0 l 29 -174 l 112 -174 l 177 -28 b 196 16 205 42 205 70 b 205 118 168 155 119 155 z"},"J":{"x_min":0,"x_max":314,"ha":314,"o":"m 245 692 l 98 692 l 98 108 b 98 24 83 -22 -7 -57 l 32 -162 b 148 -124 245 -65 245 103 z"},"V":{"x_min":0,"x_max":567,"ha":567,"o":"m 575 692 l 425 692 l 289 122 l 148 692 l -9 692 l 197 0 l 376 0 z"},"\"":{"x_min":0,"x_max":430,"ha":430,"o":"m 69 417 l 165 417 l 183 692 l 51 692 z m 265 417 l 361 417 l 379 692 l 247 692 z"},"7":{"x_min":0,"x_max":462,"ha":462,"o":"m 441 674 l 16 674 l 16 566 l 294 566 l 64 28 l 193 -15 l 441 576 z"},"S":{"x_min":0,"x_max":565,"ha":565,"o":"m 284 708 b 144 708 42 631 42 513 b 42 408 102 348 252 301 b 357 269 384 245 384 190 b 384 129 336 95 265 95 b 194 95 139 121 89 164 l 13 81 b 70 25 154 -16 269 -16 b 437 -16 537 73 537 200 b 537 328 457 380 332 420 b 219 455 193 475 193 523 b 193 572 234 598 294 598 b 350 598 398 580 447 540 l 517 621 b 457 677 387 708 284 708 z"},"}":{"x_min":0,"x_max":323,"ha":323,"o":"m 31 839 l 31 738 b 92 738 111 722 111 677 l 111 478 b 111 393 147 365 208 349 b 148 334 111 307 111 222 l 111 23 b 111 -22 92 -38 31 -38 l 31 -139 b 200 -139 244 -85 244 22 l 244 211 b 244 269 258 291 310 291 l 310 408 b 258 408 244 431 244 489 l 244 678 b 244 786 200 839 31 839 z"},"Z":{"x_min":0,"x_max":539,"ha":539,"o":"m 503 692 l 53 692 l 53 576 l 337 576 l 21 111 l 21 0 l 492 0 l 508 119 l 193 119 l 503 579 z"},"x":{"x_min":0,"x_max":505,"ha":505,"o":"m 338 284 l 487 530 l 335 530 l 254 354 l 171 530 l 11 530 l 167 279 l -7 0 l 149 0 l 248 205 l 349 0 l 512 0 z"},")":{"x_min":0,"x_max":324,"ha":324,"o":"m 109 855 l 19 794 b 111 662 157 542 157 350 b 157 158 111 38 19 -94 l 109 -155 b 209 -17 301 112 301 350 b 301 588 209 717 109 855 z"},"&":{"x_min":0,"x_max":784,"ha":784,"o":"m 310 708 b 172 708 105 631 105 544 b 105 479 134 438 201 373 b 112 316 65 261 65 177 b 65 60 163 -16 307 -16 b 393 -16 465 10 526 64 l 609 -16 l 727 45 l 608 151 b 642 201 673 263 699 340 l 578 376 b 565 318 547 267 528 226 l 382 362 b 459 411 517 466 517 550 b 517 640 439 708 310 708 z m 312 614 b 355 614 381 588 381 545 b 381 501 354 469 304 437 b 261 479 242 506 242 545 b 242 586 268 614 312 614 z m 282 296 l 453 133 b 418 103 379 87 330 87 b 259 87 213 124 213 184 b 213 229 235 263 282 296 z"},"_":{"x_min":0,"x_max":520,"ha":520,"o":"m 11 -164 l 509 -164 l 509 -51 l 11 -51 z"},"v":{"x_min":0,"x_max":508,"ha":508,"o":"m 510 530 l 364 530 l 257 111 l 152 530 l -2 530 l 171 0 l 340 0 z"},"O":{"x_min":0,"x_max":691,"ha":691,"o":"m 346 708 b 156 708 38 572 38 346 b 38 115 156 -16 346 -16 b 536 -16 653 119 653 346 b 653 578 536 708 346 708 z m 346 598 b 445 598 498 527 498 346 b 498 165 445 94 346 94 b 250 94 193 165 193 346 b 193 527 248 598 346 598 z"},"(":{"x_min":0,"x_max":324,"ha":324,"o":"m 215 855 b 115 717 23 588 23 350 b 23 112 115 -17 215 -155 l 306 -94 b 214 38 168 158 168 350 b 168 542 214 662 306 794 z"},"C":{"x_min":0,"x_max":571,"ha":571,"o":"m 344 708 b 171 708 38 580 38 347 b 38 111 164 -16 348 -16 b 444 -16 517 26 561 71 l 493 158 b 453 127 413 100 355 100 b 260 100 193 173 193 347 b 193 527 261 597 353 597 b 401 597 441 580 479 547 l 553 633 b 496 681 436 708 344 708 z"},"W":{"x_min":0,"x_max":842,"ha":842,"o":"m 828 692 l 689 692 l 600 114 l 499 692 l 344 692 l 239 114 l 160 692 l 13 692 l 133 0 l 319 0 l 420 541 l 516 0 l 707 0 z"},"A":{"x_min":0,"x_max":586,"ha":586,"o":"m 439 0 l 595 0 l 383 692 l 204 692 l -9 0 l 144 0 l 183 155 l 400 155 z m 210 264 l 291 583 l 372 264 z"},"f":{"x_min":0,"x_max":351,"ha":351,"o":"m 297 651 b 322 651 351 646 383 631 l 422 725 b 383 744 336 757 282 757 b 153 757 88 681 88 583 l 88 530 l 4 530 l 4 430 l 88 430 l 88 0 l 230 0 l 230 430 l 340 430 l 356 530 l 230 530 l 230 579 b 230 629 249 651 297 651 z"},"Q":{"x_min":0,"x_max":689,"ha":689,"o":"m 491 43 b 579 92 653 178 653 346 b 653 578 536 708 346 708 b 156 708 38 572 38 346 b 38 115 156 -13 337 -13 b 466 -13 534 -65 602 -136 l 691 -19 b 638 19 578 43 491 43 z m 193 346 b 193 527 248 598 346 598 b 445 598 498 527 498 346 b 498 165 445 94 346 94 b 250 94 193 165 193 346 z"},"w":{"x_min":0,"x_max":741,"ha":741,"o":"m 733 530 l 597 530 l 525 105 l 446 530 l 304 530 l 216 105 l 151 530 l 8 530 l 124 0 l 295 0 l 371 403 l 447 0 l 620 0 z"},"-":{"x_min":0,"x_max":406,"ha":406,"o":"m 48 257 l 358 257 l 358 369 l 48 369 z"},"E":{"x_min":0,"x_max":528,"ha":528,"o":"m 486 692 l 73 692 l 73 0 l 488 0 l 488 108 l 220 108 l 220 299 l 438 299 l 438 405 l 220 405 l 220 585 l 470 585 z"},"s":{"x_min":0,"x_max":479,"ha":479,"o":"m 246 546 b 118 546 36 478 36 388 b 36 308 86 255 193 225 b 291 198 310 185 310 145 b 310 109 276 87 223 87 b 170 87 121 108 81 139 l 11 61 b 61 15 135 -16 227 -16 b 353 -16 456 46 456 156 b 456 250 396 294 290 323 b 197 350 179 364 179 395 b 179 424 205 443 252 443 b 298 443 341 428 384 401 l 438 482 b 388 522 323 546 246 546 z"},">":{"x_min":0,"x_max":514,"ha":514,"o":"m 84 570 l 38 467 l 357 333 l 38 201 l 84 96 l 476 269 l 476 397 z"},"l":{"x_min":0,"x_max":296,"ha":296,"o":"m 202 -16 b 238 -16 270 -8 293 2 l 264 103 b 256 99 247 97 236 97 b 216 97 207 109 207 132 l 207 757 l 65 741 l 65 128 b 65 36 116 -16 202 -16 z"},"8":{"x_min":0,"x_max":574,"ha":574,"o":"m 404 362 b 480 402 514 454 514 514 b 514 626 413 687 287 687 b 160 687 60 618 60 508 b 60 444 89 390 160 349 b 81 314 33 261 33 179 b 33 71 127 -16 284 -16 b 444 -16 540 72 540 182 b 540 260 496 319 404 362 z m 288 590 b 346 590 376 556 376 507 b 376 463 360 430 310 398 l 290 405 b 230 429 198 454 198 506 b 198 561 233 590 288 590 z m 288 88 b 219 88 176 125 176 185 b 176 241 201 283 251 311 l 283 299 b 366 269 397 242 397 183 b 397 128 359 88 288 88 z"},"\\":{"x_min":0,"x_max":520,"ha":520,"o":"m 204 814 l 81 786 l 315 -110 l 439 -81 z"},"e":{"x_min":0,"x_max":553,"ha":553,"o":"m 518 277 b 518 446 429 546 279 546 b 124 546 38 422 38 262 b 38 96 127 -16 297 -16 b 380 -16 446 14 498 56 l 439 136 b 393 104 355 90 310 90 b 242 90 194 120 184 222 l 515 222 b 516 237 518 259 518 277 z m 377 311 l 184 311 b 192 412 226 449 282 449 b 350 449 377 397 377 317 z"},"b":{"x_min":0,"x_max":596,"ha":596,"o":"m 354 546 b 297 546 245 518 212 473 l 212 757 l 70 741 l 70 0 l 196 0 l 204 52 b 237 10 284 -16 343 -16 b 474 -16 553 101 553 265 b 553 442 482 546 354 546 z m 304 89 b 266 89 234 110 212 145 l 212 373 b 236 413 268 441 310 441 b 366 441 405 403 405 265 b 405 136 363 89 304 89 z"},"%":{"x_min":0,"x_max":851,"ha":851,"o":"m 613 718 l 150 19 l 239 -38 l 703 661 z m 207 687 b 109 687 33 619 33 510 b 33 401 109 333 207 333 b 306 333 381 401 381 510 b 381 619 306 687 207 687 z m 207 600 b 262 600 275 554 275 510 b 275 464 262 420 207 420 b 152 420 138 466 138 510 b 138 556 152 600 207 600 z m 644 338 b 546 338 469 270 469 161 b 469 53 546 -16 644 -16 b 743 -16 818 53 818 161 b 818 270 743 338 644 338 z m 644 251 b 699 251 712 206 712 161 b 712 116 699 71 644 71 b 589 71 575 117 575 161 b 575 207 589 251 644 251 z"},"m":{"x_min":0,"x_max":848,"ha":848,"o":"m 643 546 b 574 546 526 515 485 459 b 464 515 418 546 358 546 b 291 546 243 517 204 464 l 193 530 l 70 530 l 70 0 l 212 0 l 212 366 b 238 413 264 440 303 440 b 332 440 355 423 355 362 l 355 0 l 497 0 l 497 366 b 524 413 550 440 589 440 b 617 440 641 423 641 362 l 641 0 l 783 0 l 783 386 b 783 486 726 546 643 546 z"},"#":{"x_min":0,"x_max":547,"ha":547,"o":"m 532 442 l 532 538 l 474 538 l 492 674 l 374 674 l 356 538 l 242 538 l 260 674 l 142 674 l 124 538 l 52 538 l 52 442 l 112 442 l 85 244 l 15 244 l 15 148 l 73 148 l 53 0 l 171 0 l 191 148 l 304 148 l 285 0 l 403 0 l 422 148 l 495 148 l 495 244 l 435 244 l 461 442 z m 317 244 l 204 244 l 230 442 l 343 442 z"},",":{"x_min":0,"x_max":240,"ha":240,"o":"m 119 155 b 71 155 34 118 34 70 b 34 41 48 15 71 0 l 29 -174 l 112 -174 l 177 -28 b 196 16 205 42 205 70 b 205 118 168 155 119 155 z"},"n":{"x_min":0,"x_max":579,"ha":579,"o":"m 366 546 b 299 546 247 516 204 463 l 193 530 l 70 530 l 70 0 l 212 0 l 212 366 b 241 413 273 440 314 440 b 350 440 372 423 372 362 l 372 0 l 514 0 l 514 386 b 514 486 459 546 366 546 z"},"h":{"x_min":0,"x_max":579,"ha":579,"o":"m 366 546 b 303 546 254 519 212 470 l 212 756 l 70 741 l 70 0 l 212 0 l 212 367 b 241 413 274 440 314 440 b 349 440 372 423 372 362 l 372 0 l 514 0 l 514 386 b 514 486 458 546 366 546 z"},"z":{"x_min":0,"x_max":454,"ha":454,"o":"m 428 530 l 37 530 l 37 421 l 265 421 l 16 102 l 16 0 l 419 0 l 433 110 l 179 110 l 428 429 z"},"B":{"x_min":0,"x_max":615,"ha":615,"o":"m 427 366 b 491 381 554 428 554 515 b 554 643 443 692 262 692 l 73 692 l 73 0 l 289 0 b 459 0 584 46 584 201 b 584 314 505 351 427 366 z m 276 586 b 361 586 404 566 404 502 b 404 440 362 411 292 411 l 220 411 l 220 586 z m 290 109 l 220 109 l 220 311 l 303 311 b 377 311 431 284 431 207 b 431 125 372 109 290 109 z"},"K":{"x_min":0,"x_max":622,"ha":622,"o":"m 613 692 l 456 692 l 226 369 l 459 0 l 631 0 l 382 380 z m 220 692 l 73 692 l 73 0 l 220 0 z"},"R":{"x_min":0,"x_max":614,"ha":614,"o":"m 443 0 l 610 0 l 432 298 b 524 337 568 392 568 485 b 568 625 474 692 289 692 l 73 692 l 73 0 l 220 0 l 220 271 l 295 271 z m 220 587 l 286 587 b 375 587 416 556 416 485 b 416 407 374 375 297 375 l 220 375 z"},"T":{"x_min":0,"x_max":534,"ha":534,"o":"m 532 692 l 10 692 l 10 577 l 194 577 l 194 0 l 341 0 l 341 577 l 516 577 z"},"P":{"x_min":0,"x_max":595,"ha":595,"o":"m 287 692 l 73 692 l 73 0 l 220 0 l 220 236 l 299 236 b 457 236 571 309 571 469 b 571 620 463 692 287 692 z m 287 344 l 220 344 l 220 586 l 285 586 b 371 586 419 550 419 469 b 419 375 368 344 287 344 z"},"|":{"x_min":0,"x_max":383,"ha":383,"o":"m 257 809 l 126 809 l 126 -104 l 257 -104 z"},"t":{"x_min":0,"x_max":380,"ha":380,"o":"m 338 116 b 316 103 297 97 278 97 b 242 97 225 117 225 169 l 225 430 l 333 430 l 347 530 l 225 530 l 225 663 l 83 646 l 83 530 l 4 530 l 4 430 l 83 430 l 83 166 b 83 48 139 -15 249 -16 b 296 -16 348 -2 387 25 z"},"M":{"x_min":0,"x_max":794,"ha":794,"o":"m 691 692 l 502 692 l 395 215 l 281 692 l 94 692 l 40 0 l 183 0 l 198 278 b 203 375 204 467 198 564 l 323 74 l 462 74 l 579 563 b 576 484 579 380 585 281 l 600 0 l 744 0 z"},"g":{"x_min":0,"x_max":544,"ha":544,"o":"m 509 610 b 445 574 383 543 261 546 b 128 546 35 471 35 354 b 35 286 63 239 129 203 b 91 179 67 142 67 104 b 67 48 113 0 224 0 l 302 0 b 358 0 385 -22 385 -58 b 385 -96 359 -123 261 -123 b 160 -123 138 -101 138 -51 l 11 -51 b 11 -157 64 -220 258 -220 b 435 -220 528 -155 528 -48 b 528 40 451 104 331 104 l 250 104 b 198 104 189 121 189 139 b 189 153 197 166 209 174 b 228 169 248 167 271 167 b 406 167 489 242 489 345 b 489 412 456 452 391 481 b 455 481 505 486 544 501 z m 264 451 b 323 451 352 421 352 358 b 352 293 322 259 265 259 b 211 259 177 295 177 356 b 177 414 210 451 264 451 z"},"j":{"x_min":0,"x_max":281,"ha":281,"o":"m 140 803 b 89 803 54 767 54 720 b 54 673 89 637 140 637 b 191 637 227 673 227 720 b 227 767 191 803 140 803 z m 211 530 l 69 530 l 69 44 b 69 -56 30 -84 -38 -116 l 9 -219 b 130 -172 211 -114 211 53 z"},"i":{"x_min":0,"x_max":282,"ha":282,"o":"m 140 803 b 90 803 54 767 54 720 b 54 673 90 637 140 637 b 192 637 227 673 227 720 b 227 767 192 803 140 803 z m 212 530 l 70 530 l 70 0 l 212 0 z"},"y":{"x_min":0,"x_max":512,"ha":512,"o":"m 514 530 l 367 530 l 255 92 l 149 530 l -2 530 l 163 0 l 212 0 b 183 -72 147 -104 42 -118 l 57 -220 b 219 -209 302 -130 343 -1 z"},"@":{"x_min":0,"x_max":1020,"ha":1020,"o":"m 527 500 b 384 500 298 399 298 232 b 298 103 356 9 478 9 b 552 9 598 53 621 107 b 632 60 673 5 753 5 b 887 5 967 137 967 314 b 967 520 809 708 526 708 b 250 708 53 511 53 241 b 53 -40 241 -220 526 -220 b 612 -220 693 -202 757 -178 l 722 -78 b 670 -97 597 -113 527 -113 b 304 -113 184 27 184 242 b 184 453 309 602 526 602 b 736 602 837 490 837 312 b 837 151 801 97 748 97 b 712 97 696 123 696 207 l 696 456 b 641 486 582 500 527 500 z m 496 100 b 449 100 427 138 427 232 b 427 360 463 409 523 409 b 544 409 558 405 575 398 l 575 158 b 563 132 540 100 496 100 z"},".":{"x_min":0,"x_max":240,"ha":240,"o":"m 119 155 b 72 155 34 116 34 70 b 34 23 72 -16 119 -16 b 167 -16 205 23 205 70 b 205 116 167 155 119 155 z"},"p":{"x_min":0,"x_max":596,"ha":596,"o":"m 354 546 b 302 546 245 523 202 468 l 195 530 l 70 530 l 70 -220 l 212 -204 l 212 41 b 245 2 290 -16 343 -16 b 476 -16 553 104 553 266 b 553 437 494 546 354 546 z m 301 90 b 265 90 235 107 212 142 l 212 373 b 236 413 271 441 310 441 b 371 441 405 398 405 265 b 405 141 366 90 301 90 z"},"X":{"x_min":0,"x_max":571,"ha":571,"o":"m 371 373 l 554 692 l 398 692 l 284 461 l 175 692 l 14 692 l 195 368 l -2 0 l 155 0 l 282 274 l 411 0 l 573 0 z"},"*":{"x_min":0,"x_max":447,"ha":447,"o":"m 436 542 l 397 658 l 266 593 l 286 741 l 161 741 l 180 594 l 49 657 l 11 541 l 155 516 l 54 410 l 155 336 l 223 466 l 293 337 l 394 411 l 292 516 z"},"Y":{"x_min":0,"x_max":583,"ha":583,"o":"m 587 692 l 432 692 l 295 378 l 157 692 l -4 692 l 218 260 l 218 0 l 365 0 l 365 261 z"},"c":{"x_min":0,"x_max":478,"ha":478,"o":"m 291 546 b 136 546 38 429 38 261 b 38 92 135 -16 293 -16 b 363 -16 419 7 467 46 l 405 135 b 366 110 339 98 300 98 b 233 98 188 139 188 262 b 188 385 230 436 301 436 b 340 436 371 424 405 398 l 467 482 b 417 525 362 546 291 546 z"},"!":{"x_min":0,"x_max":241,"ha":241,"o":"m 195 692 l 43 692 l 62 249 l 178 249 z m 120 155 b 73 155 35 116 35 70 b 35 23 73 -16 120 -16 b 168 -16 206 23 206 70 b 206 116 168 155 120 155 z"},"/":{"x_min":0,"x_max":520,"ha":520,"o":"m 316 814 l 81 -81 l 205 -110 l 439 786 z"},"[":{"x_min":0,"x_max":323,"ha":323,"o":"m 292 821 l 41 821 l 41 -121 l 292 -121 l 292 -14 l 176 -14 l 176 713 l 292 713 z"},"6":{"x_min":0,"x_max":556,"ha":556,"o":"m 336 451 b 282 451 231 431 189 382 b 196 510 248 584 329 584 b 365 584 395 574 424 557 l 476 644 b 438 670 387 687 326 687 b 150 687 42 537 42 310 b 42 116 115 -16 291 -16 b 434 -16 528 90 528 230 b 528 373 444 451 336 451 z m 292 88 b 219 88 191 146 189 289 b 219 328 257 351 299 351 b 353 351 385 320 385 228 b 385 143 355 88 292 88 z"},"r":{"x_min":0,"x_max":397,"ha":397,"o":"m 344 545 b 282 545 231 501 206 427 l 193 530 l 70 530 l 70 0 l 212 0 l 212 273 b 231 359 261 407 326 407 b 344 407 357 404 373 400 l 397 537 b 379 542 363 545 344 545 z"},"2":{"x_min":0,"x_max":512,"ha":512,"o":"m 236 687 b 139 687 65 645 11 574 l 97 506 b 137 555 172 577 223 577 b 278 577 315 542 315 484 b 315 394 260 332 31 103 l 31 0 l 460 0 l 476 110 l 193 110 b 402 306 461 387 461 496 b 461 601 380 687 236 687 z"},"{":{"x_min":0,"x_max":323,"ha":323,"o":"m 293 839 b 124 839 79 786 79 678 l 79 489 b 79 431 65 408 13 408 l 13 291 b 65 291 79 269 79 211 l 79 22 b 79 -85 124 -139 293 -139 l 293 -38 b 232 -38 213 -22 213 23 l 213 222 b 213 307 176 334 115 349 b 177 365 212 393 212 478 l 212 677 b 212 722 231 738 293 738 z"},"9":{"x_min":0,"x_max":552,"ha":552,"o":"m 273 687 b 138 687 31 598 31 457 b 31 320 117 236 222 236 b 286 236 332 264 364 304 b 342 177 251 116 81 74 l 111 -27 b 390 35 516 150 516 426 b 516 580 434 687 273 687 z m 263 338 b 213 338 173 370 173 461 b 173 542 212 584 273 584 b 344 584 373 536 371 403 b 343 361 306 338 263 338 z"}," ":{"x_min":0,"x_max":244,"ha":244,"o":""},"I":{"x_min":0,"x_max":294,"ha":294,"o":"m 220 692 l 73 692 l 73 0 l 220 0 z"},"H":{"x_min":0,"x_max":669,"ha":669,"o":"m 449 0 l 596 0 l 596 692 l 449 692 l 449 419 l 220 419 l 220 692 l 73 692 l 73 0 l 220 0 l 220 303 l 449 303 z"},"4":{"x_min":0,"x_max":557,"ha":557,"o":"m 534 258 l 455 258 l 455 423 l 333 423 l 318 258 l 178 258 l 345 644 l 225 689 l 31 246 l 31 150 l 316 150 l 317 0 l 455 0 l 455 150 l 534 150 z"},"~":{"x_min":0,"x_max":508,"ha":508,"o":"m 334 236 b 415 236 459 296 487 353 l 411 391 b 393 366 375 343 340 343 b 293 343 262 404 176 404 b 94 404 49 341 21 284 l 98 245 b 115 271 133 297 169 297 b 215 297 246 236 334 236 z"},"D":{"x_min":0,"x_max":650,"ha":650,"o":"m 254 692 l 73 692 l 73 0 l 271 0 b 441 0 611 70 611 349 b 611 635 437 692 254 692 z m 277 584 b 377 584 458 547 458 349 b 458 155 381 108 280 108 l 220 108 l 220 584 z"},"^":{"x_min":0,"x_max":554,"ha":554,"o":"m 342 843 l 212 843 l 23 527 l 166 527 l 276 734 l 390 527 l 531 527 z"},"0":{"x_min":0,"x_max":579,"ha":579,"o":"m 289 687 b 127 687 42 562 42 336 b 42 111 127 -16 289 -16 b 452 -16 537 111 537 336 b 537 562 452 687 289 687 z m 289 581 b 359 581 391 523 391 336 b 391 150 359 91 289 91 b 219 91 188 153 188 336 b 188 519 219 581 289 581 z"},"F":{"x_min":0,"x_max":488,"ha":488,"o":"m 475 692 l 73 692 l 73 0 l 220 0 l 220 282 l 428 282 l 428 389 l 220 389 l 220 585 l 459 585 z"},"`":{"x_min":0,"x_max":330,"ha":330,"o":"m 87 827 l 30 718 l 260 626 l 300 699 z"},"k":{"x_min":0,"x_max":542,"ha":542,"o":"m 212 757 l 70 741 l 70 0 l 212 0 z m 534 530 l 387 530 l 217 290 l 388 0 l 549 0 l 365 297 z"},"u":{"x_min":0,"x_max":574,"ha":574,"o":"m 504 530 l 362 530 l 362 159 b 337 116 304 90 265 90 b 226 90 207 109 207 167 l 207 530 l 65 530 l 65 149 b 65 47 115 -16 213 -16 b 284 -16 336 12 374 71 l 381 0 l 504 0 z"},"]":{"x_min":0,"x_max":323,"ha":323,"o":"m 282 821 l 31 821 l 31 714 l 147 714 l 147 -14 l 31 -14 l 31 -121 l 282 -121 z"},"U":{"x_min":0,"x_max":654,"ha":654,"o":"m 590 692 l 443 692 l 443 235 b 443 142 407 96 326 96 b 246 96 210 142 210 235 l 210 692 l 63 692 l 63 228 b 63 84 151 -16 326 -16 b 501 -16 590 89 590 228 z"},"o":{"x_min":0,"x_max":584,"ha":584,"o":"m 293 546 b 133 546 38 434 38 265 b 38 89 134 -16 292 -16 b 451 -16 546 97 546 265 b 546 441 451 546 293 546 z m 293 440 b 362 440 398 387 398 265 b 398 144 362 90 292 90 b 222 90 186 143 186 265 b 186 386 222 440 293 440 z"},"N":{"x_min":0,"x_max":668,"ha":668,"o":"m 595 692 l 462 692 l 462 388 b 462 285 475 189 482 142 l 258 692 l 73 692 l 73 0 l 206 0 l 206 269 b 206 397 194 487 186 549 l 406 0 l 595 0 z"},"+":{"x_min":0,"x_max":523,"ha":523,"o":"m 321 542 l 201 542 l 201 387 l 52 387 l 52 276 l 201 276 l 201 122 l 321 122 l 321 276 l 471 276 l 471 387 l 321 387 z"},"G":{"x_min":0,"x_max":641,"ha":641,"o":"m 361 708 b 184 708 38 581 38 347 b 38 109 145 -16 345 -16 b 438 -16 523 11 592 54 l 592 395 l 337 395 l 352 288 l 449 288 l 449 119 b 418 102 383 94 346 94 b 244 94 192 161 192 346 b 192 526 270 599 368 599 b 425 599 464 581 509 544 l 588 625 b 530 675 460 708 361 708 z"},"q":{"x_min":0,"x_max":594,"ha":594,"o":"m 401 530 l 393 481 b 356 522 309 546 255 546 b 120 546 38 429 38 265 b 38 96 106 -16 239 -16 b 304 -16 351 13 382 55 l 382 -204 l 524 -220 l 524 530 z m 282 90 b 224 90 186 132 186 265 b 186 389 228 441 291 441 b 329 441 356 422 382 391 l 382 154 b 355 112 324 90 282 90 z"},"d":{"x_min":0,"x_max":599,"ha":599,"o":"m 387 757 l 387 492 b 355 524 311 546 260 546 b 125 546 43 429 43 265 b 43 96 111 -16 244 -16 b 315 -16 364 19 395 65 l 404 0 l 529 0 l 529 741 z m 287 90 b 229 90 191 132 191 265 b 191 389 233 441 296 441 b 334 441 361 422 387 391 l 387 154 b 360 112 329 90 287 90 z"},"1":{"x_min":0,"x_max":456,"ha":456,"o":"m 367 674 l 242 674 l 18 539 l 80 443 l 228 534 l 228 0 l 367 0 z"},"5":{"x_min":0,"x_max":527,"ha":527,"o":"m 463 674 l 61 674 l 61 316 l 160 316 b 191 333 215 340 244 340 b 303 340 346 309 346 221 b 346 138 302 93 230 93 b 174 93 132 116 97 158 l 16 82 b 68 24 136 -16 234 -16 b 390 -16 492 81 492 221 b 492 359 410 439 299 439 b 266 439 231 432 197 416 l 197 571 l 446 571 z"}}}
